<?xml version="1.0" encoding="UTF-8"?>
<svg width="200px" height="200px" viewBox="0 0 200 200" version="1.1" xmlns="http://www.w3.org/2000/svg" xmlns:xlink="http://www.w3.org/1999/xlink">
    <title>Untitled</title>
    <g id="Page-1" stroke="none" stroke-width="1" fill="none" fill-rule="evenodd">
        <g id="Group-2">
            <rect id="Rectangle" fill="#202C37" x="0" y="0" width="200" height="200"></rect>
            <g id="Layer-1" transform="translate(36.000000, 36.000000)" fill="#FFFFFF" fill-rule="nonzero">
                <path d="M64.2140468,-9.50558844e-15 C28.7496656,-9.50558844e-15 0,28.7496656 0,64.2140468 C0,99.6784281 28.7496656,128.428094 64.2140468,128.428094 C68.5540134,128.428094 72.7931438,127.996321 76.8916388,127.175585 C75.2396321,126.385452 75.0593645,120.457525 76.6929766,117.077759 C78.5115385,113.315217 84.2180602,103.783445 78.5742475,100.585284 C72.9304348,97.3871237 74.4981605,95.9448161 71.0491639,92.2449833 C67.6001672,88.5451505 69.0107023,87.9889632 68.7916388,87.0401338 C68.0391304,83.7792642 72.1152174,78.8879599 72.3033445,78.3862876 C72.4914716,77.8846154 72.4914716,76.0033445 72.4287625,75.4389632 C72.3660535,74.8745819 69.8578595,73.3695652 69.2307692,73.3068562 C68.6036789,73.2441472 68.2901338,74.3102007 67.4122074,74.3729097 C66.5342809,74.4356187 62.7090301,72.0526756 61.8938127,71.4255853 C61.0785953,70.798495 60.7023411,69.2934783 59.5735786,68.1647157 C58.4448161,67.0359532 58.319398,67.9138796 56.5635452,67.2240803 C54.8076923,66.5342809 49.1638796,64.4648829 44.8369565,62.7090301 C40.5100334,60.9531773 40.1337793,58.491806 40.0710702,56.7516722 C40.0083612,55.0115385 37.437291,52.4874582 36.2314381,50.6688963 C35.0259197,48.8503344 34.8035117,46.3419732 34.3645485,46.9063545 C33.9255853,47.4707358 36.6220736,54.0551839 36.1831104,54.243311 C35.7441472,54.4314381 34.8035117,52.4247492 33.5493311,50.7943144 C32.2951505,49.1638796 34.8662207,50.041806 30.8528428,42.1404682 C26.8394649,34.2391304 32.1070234,30.2100334 32.3578595,26.0869565 C32.6086957,21.9638796 35.7441472,27.5919732 34.1137124,24.958194 C32.4832776,22.3244147 34.2391304,16.8060201 32.9849498,14.7993311 C31.7307692,12.7926421 24.5819398,17.0568562 24.5819398,17.0568562 C24.7700669,15.1128763 30.8528428,11.7892977 35.2424749,8.71655518 C39.632107,5.64381271 42.3128763,8.02675585 45.840301,9.15551839 C49.3677258,10.2842809 49.6028428,9.90802676 48.4113712,8.77926421 C47.2198997,7.65050167 48.9130435,7.0861204 51.6722408,7.52508361 C54.4314381,7.96404682 55.1839465,11.2876254 59.3854515,10.9740803 C63.5869565,10.6605351 59.8244147,11.7892977 60.388796,12.8553512 C60.9531773,13.9214047 59.7617057,13.7959866 57.0025084,15.6772575 C54.243311,17.5585284 57.0652174,17.5585284 61.9565217,21.1329431 C66.8478261,24.7073579 65.3428094,18.75 64.8411371,16.1162207 C64.3394649,13.4824415 68.4155518,15.5518395 68.4155518,15.5518395 C71.4255853,17.5585284 70.869398,15.6622074 73.064214,16.3520067 C75.2590301,17.041806 81.208194,22.0735786 81.208194,22.0735786 C73.7458194,26.1496656 78.4489967,26.5886288 79.7031773,27.5292642 C80.9573579,28.4698997 77.132107,30.2884615 77.132107,30.2884615 C75.5643813,28.7207358 75.3135452,30.3511706 74.3102007,30.9155518 C73.3068562,31.4799331 74.2474916,32.9222408 74.2474916,32.9222408 C69.0583612,33.7374582 70.2341137,39.1931438 70.2968227,40.5100334 C70.3595318,41.8269231 66.9732441,43.833612 66.0953177,45.7148829 C65.2173913,47.5961538 68.3528428,51.6722408 66.722408,51.9230769 C65.0919732,52.173913 63.4615385,45.777592 54.6822742,48.1605351 C52.0354515,48.879097 46.1538462,51.9230769 49.2892977,58.1312709 C52.4247492,64.3394649 57.6295987,56.3754181 59.3854515,57.2533445 C61.1413043,58.1312709 58.8837793,62.0819398 59.2600334,62.1446488 C59.6362876,62.2073579 64.2140468,62.3170569 64.4648829,67.6630435 C64.7157191,73.0090301 71.4255853,72.5543478 72.867893,72.6797659 C74.3102007,72.8051839 79.138796,68.729097 79.8285953,68.5409699 C80.5183946,68.3528428 83.277592,66.0326087 89.2976589,69.4816054 C95.3177258,72.930602 98.3904682,72.4289298 100.459866,73.8712375 C102.529264,75.3135452 101.086957,78.1981605 103.030936,79.138796 C104.974916,80.0794314 112.750836,78.8252508 114.694816,82.0234114 C116.638796,85.2215719 106.66806,101.275084 103.532609,103.030936 C100.397157,104.786789 98.9548495,108.800167 95.819398,111.371237 C92.6839465,113.942308 88.2943144,117.124749 84.1555184,119.58612 C80.4919732,121.764548 79.8327759,125.667224 78.2008361,126.899164 C106.93913,120.51505 128.428094,94.8745819 128.428094,64.2140468 C128.428094,28.7496656 99.6784281,-9.50558844e-15 64.2140468,-9.50558844e-15 Z M79.264214,60.2633779 C78.3862876,60.514214 76.5677258,62.1446488 72.1153846,59.5108696 C67.6630435,56.8770903 64.590301,57.3787625 64.2140468,56.9397993 C64.2140468,56.9397993 63.8377926,55.8737458 65.7817726,55.6856187 C69.7735786,55.2991639 74.8118729,59.3854515 75.9406355,59.4481605 C77.069398,59.5108696 77.6337793,58.319398 79.6404682,58.9660535 C81.6471572,59.6120401 80.1421405,60.0125418 79.264214,60.2633779 Z M58.256689,6.39632107 C57.819398,6.07826087 58.6188963,5.71204013 59.0954849,5.07943144 C59.3705686,4.7138796 59.1665552,4.10702341 59.5108696,3.76254181 C60.451505,2.82190635 65.0919732,1.50501672 64.1846154,4.07608696 C63.277592,6.64715719 58.9464883,6.89799331 58.256689,6.39632107 Z M69.4816054,14.548495 C67.9138796,14.485786 64.2235786,14.0958194 64.9038462,13.4197324 C67.5533445,10.7859532 63.9005017,10.0334448 61.6429766,9.84531773 C59.3854515,9.65719064 58.4448161,8.40301003 59.5735786,8.27759197 C60.7023411,8.15217391 65.2173913,8.340301 65.9698997,8.9673913 C66.722408,9.59448161 70.798495,11.2249164 71.0493311,12.416388 C71.3001672,13.6078595 71.0493311,14.611204 69.4816054,14.548495 Z M83.0894649,14.1095318 C81.8352843,15.1128763 75.5242475,10.5093645 74.3102007,9.46906355 C69.0426421,4.95401338 66.2207358,6.4590301 65.1145485,5.70652174 C64.0080268,4.95401338 64.4021739,3.9506689 66.0953177,2.44565217 C67.7884615,0.940635452 72.5543478,2.94732441 75.3135452,3.26086957 C78.0727425,3.57441472 81.270903,5.70652174 81.333612,8.2409699 C81.3963211,10.7752508 84.3436455,13.1061873 83.0894649,14.1095318 Z" id="svg_1"></path>
            </g>
        </g>
    </g>
</svg>